<svg preserveAspectRatio="none" width="100%" height="100%" overflow="visible" style="display: block;" viewBox="0 0 30 30" fill="none" xmlns="http://www.w3.org/2000/svg">
<g id="Group">
<path id="Vector" d="M15 17.4818C14.25 17.4818 13.6363 16.8681 13.6363 16.1181V7.25451C13.6363 6.50451 14.25 5.89087 15 5.89087C15.75 5.89087 16.3636 6.50451 16.3636 7.25451V16.1181C16.3636 16.8681 15.75 17.4818 15 17.4818Z" fill="var(--fill-0, white)"/>
<path id="Vector_2" d="M15 23.0931C14.884 23.0931 14.775 23.0795 14.6659 23.0591C14.5568 23.0318 14.4477 23.0045 14.3454 22.9568C14.2431 22.9159 14.1409 22.8613 14.0522 22.8C13.9568 22.7386 13.8681 22.6704 13.7931 22.5886C13.7113 22.5136 13.6431 22.425 13.5818 22.3295C13.5204 22.2409 13.4659 22.1386 13.425 22.0363C13.3772 21.9341 13.35 21.825 13.3227 21.7159C13.3022 21.6068 13.2954 21.4977 13.2954 21.3818C13.2954 21.2727 13.2954 21.1636 13.3227 21.0545C13.35 20.9454 13.3772 20.8363 13.425 20.7341C13.4659 20.6318 13.5204 20.5295 13.5818 20.4409C13.6431 20.3454 13.7113 20.2568 13.7931 20.1818C13.8681 20.1 13.9568 20.0318 14.0522 19.9704C14.1409 19.9091 14.2431 19.8545 14.3454 19.8136C14.4477 19.7659 14.5568 19.7318 14.6659 19.7113C14.884 19.6704 15.109 19.6704 15.3272 19.7113C15.4363 19.7318 15.5454 19.7659 15.6477 19.8136C15.75 19.8545 15.8522 19.9091 15.9409 19.9704C16.0363 20.0318 16.125 20.1 16.2 20.1818C16.2818 20.2568 16.35 20.3454 16.4113 20.4409C16.4727 20.5295 16.5272 20.6318 16.5681 20.7341C16.6159 20.8363 16.65 20.9454 16.6704 21.0545C16.6909 21.1636 16.7045 21.2727 16.7045 21.3818C16.7045 21.4977 16.6909 21.6068 16.6704 21.7159C16.65 21.825 16.6159 21.9341 16.5681 22.0363C16.5272 22.1386 16.4727 22.2409 16.4113 22.3295C16.35 22.425 16.2818 22.5136 16.2 22.5886C16.125 22.6704 16.0363 22.7386 15.9409 22.8C15.8522 22.8613 15.75 22.9159 15.6477 22.9568C15.5454 23.0045 15.4363 23.0318 15.3272 23.0591C15.2181 23.0795 15.109 23.0931 15 23.0931Z" fill="var(--fill-0, white)"/>
<path id="Vector_3" d="M15 30C6.72955 30 0 23.2705 0 15C0 6.72955 6.72955 0 15 0C23.2705 0 30 6.72955 30 15C30 23.2705 23.2705 30 15 30ZM15 2.72727C8.22955 2.72727 2.72727 8.22955 2.72727 15C2.72727 21.7705 8.22955 27.2727 15 27.2727C21.7705 27.2727 27.2727 21.7705 27.2727 15C27.2727 8.22955 21.7705 2.72727 15 2.72727Z" fill="var(--fill-0, white)"/>
</g>
</svg>
